<svg xmlns="http://www.w3.org/2000/svg" xmlns:xlink="http://www.w3.org/1999/xlink" width="500" zoomAndPan="magnify" viewBox="0 0 375 374.999991" height="500" preserveAspectRatio="xMidYMid meet" version="1.0"><defs><g/><clipPath id="5ddbc750eb"><path d="M 123.195312 151.160156 L 132.074219 151.160156 L 132.074219 160.039062 L 123.195312 160.039062 Z M 123.195312 151.160156 " clip-rule="nonzero"/></clipPath><clipPath id="1a7ff7d013"><path d="M 127.632812 151.160156 C 125.179688 151.160156 123.195312 153.148438 123.195312 155.601562 C 123.195312 158.054688 125.179688 160.039062 127.632812 160.039062 C 130.085938 160.039062 132.074219 158.054688 132.074219 155.601562 C 132.074219 153.148438 130.085938 151.160156 127.632812 151.160156 Z M 127.632812 151.160156 " clip-rule="nonzero"/></clipPath></defs><g clip-path="url(#5ddbc750eb)"><g clip-path="url(#1a7ff7d013)"><path fill="#000000" d="M 123.195312 151.160156 L 132.074219 151.160156 L 132.074219 160.039062 L 123.195312 160.039062 Z M 123.195312 151.160156 " fill-opacity="1" fill-rule="nonzero"/></g></g><g fill="#000000" fill-opacity="1"><g transform="translate(114.286708, 197.999987)"><g><path d="M 16.765625 -33 L 16.765625 -9.3125 C 16.765625 -6.09375 15.875 -3.632812 14.09375 -1.9375 C 12.320312 -0.25 9.785156 0.59375 6.484375 0.59375 C 5.597656 0.59375 4.726562 0.484375 3.875 0.265625 C 3.019531 0.0546875 2.300781 -0.195312 1.71875 -0.5 C 1.132812 -0.800781 0.609375 -1.113281 0.140625 -1.4375 C -0.328125 -1.757812 -0.664062 -2.023438 -0.875 -2.234375 L -1.234375 -2.5625 L 1.15625 -8.84375 C 2.726562 -7.34375 4.15625 -6.59375 5.4375 -6.59375 C 6.582031 -6.59375 7.5 -6.972656 8.1875 -7.734375 C 8.882812 -8.492188 9.234375 -9.660156 9.234375 -11.234375 L 9.234375 -33 Z M 16.765625 -33 "/></g></g></g><g fill="#000000" fill-opacity="1"><g transform="translate(133.044843, 197.999987)"><g><path d="M 0.921875 -16.515625 C 0.921875 -21.296875 2.546875 -25.335938 5.796875 -28.640625 C 9.054688 -31.941406 12.976562 -33.59375 17.5625 -33.59375 C 22.175781 -33.59375 26.09375 -31.945312 29.3125 -28.65625 C 32.539062 -25.363281 34.15625 -21.316406 34.15625 -16.515625 C 34.15625 -11.691406 32.566406 -7.632812 29.390625 -4.34375 C 26.222656 -1.050781 22.28125 0.59375 17.5625 0.59375 C 12.726562 0.59375 8.742188 -1.035156 5.609375 -4.296875 C 2.484375 -7.566406 0.921875 -11.640625 0.921875 -16.515625 Z M 9.046875 -16.515625 C 9.046875 -14.785156 9.3125 -13.207031 9.84375 -11.78125 C 10.375 -10.351562 11.304688 -9.144531 12.640625 -8.15625 C 13.972656 -7.175781 15.613281 -6.6875 17.5625 -6.6875 C 20.363281 -6.6875 22.476562 -7.644531 23.90625 -9.5625 C 25.332031 -11.476562 26.046875 -13.796875 26.046875 -16.515625 C 26.046875 -19.210938 25.316406 -21.523438 23.859375 -23.453125 C 22.410156 -25.390625 20.3125 -26.359375 17.5625 -26.359375 C 14.84375 -26.359375 12.742188 -25.390625 11.265625 -23.453125 C 9.785156 -21.523438 9.046875 -19.210938 9.046875 -16.515625 Z M 9.046875 -16.515625 "/></g></g></g><g fill="#000000" fill-opacity="1"><g transform="translate(168.12136, 197.999987)"><g><path d="M 9.921875 -33 L 9.921875 0 L 2.40625 0 L 2.40625 -33 Z M 9.921875 -33 "/></g></g></g><g fill="#000000" fill-opacity="1"><g transform="translate(180.440134, 197.999987)"><g><path d="M 9.921875 -20.484375 L 9.921875 0 L 2.40625 0 L 2.40625 -33 L 9.921875 -33 L 23.046875 -12.515625 L 23.125 -12.515625 L 23.125 -33 L 30.640625 -33 L 30.640625 0 L 23.125 0 L 10 -20.484375 Z M 9.921875 -20.484375 "/></g></g></g><g fill="#000000" fill-opacity="1"><g transform="translate(213.476856, 197.999987)"><g><path d="M 9.921875 -33 L 9.921875 -6.59375 L 21.28125 -6.59375 L 21.28125 0 L 2.40625 0 L 2.40625 -33 Z M 9.921875 -33 "/></g></g></g><g fill="#000000" fill-opacity="1"><g transform="translate(236.07461, 197.999987)"><g><path d="M 9.921875 -33 L 9.921875 0 L 2.40625 0 L 2.40625 -33 Z M 9.921875 -33 "/></g></g></g><g fill="#000000" fill-opacity="1"><g transform="translate(248.393384, 197.999987)"><g><path d="M 9.921875 -33 L 9.921875 0 L 2.40625 0 L 2.40625 -33 Z M 9.921875 -33 "/></g></g></g></svg>